<?xml version="1.0" encoding="utf-8"?>
<!-- Generator: Adobe Illustrator 22.1.0, SVG Export Plug-In . SVG Version: 6.00 Build 0)  -->
<svg version="1.1" id="Layer_1" xmlns="http://www.w3.org/2000/svg" xmlns:xlink="http://www.w3.org/1999/xlink" x="0px" y="0px"
	 viewBox="0 0 650 650" style="enable-background:new 0 0 650 650;" xml:space="preserve">
<style type="text/css">
	.st0{fill:#FFFFFF;}
</style>
<g>
	<g id="XMLID_1_">
		<g>
			<path class="st0" d="M216.2,573.1c21.6,9.3,43.8,16.2,66.8,19.2c18,2.4,36.2,3.9,54.8,2.4c28-2.2,54.9-7.8,81.1-17.6
				c24.4-9.2,46.6-22.1,67.4-38c12.5-9.5,23.6-20.4,34.3-31.8c20.6-22,36.4-47.1,48.6-74.8c9.4-21.5,15.7-43.9,19.3-66.8
				c3.7-23.7,4-47.6,0.7-71.7c-4.5-32.2-13.5-62.7-28.4-91.6c-16.5-32-39.3-58.8-66.5-82.1c-27.2-23.3-58.1-39.6-92-50.5
				c-20.1-6.4-40.7-10.3-61.8-11.3c-5.1-0.2-10.2-1.6-15.4-1.3c-2.5,0.1-3.3-1-3.3-3.4c0.1-14.8,0.1-29.5,0-44.3
				c0-4.2,2.4-4.1,5.1-3.6c14.9,2.3,30,1.3,44.8,4.1c13,2.5,26.1,4.9,38.8,8.5c35.3,10.1,67.9,25.6,97.7,47
				c11.1,7.9,21.4,16.8,31.5,25.8c20.9,18.6,38.1,40.1,53.1,63.4c21.4,33.3,35.7,69.4,43.3,108.3c3.6,18.3,5.1,36.6,5.8,55.2
				c1.8,47.8-7.5,93.2-26.3,136.9c-12.1,28.1-28.4,53.4-48,76.9c-25.1,30-54.7,54.4-88.7,73.6c-32,18-66,29.6-102.2,35.9
				c-18.3,3.2-36.4,4.3-49.8,4c-51,0.9-94.6-8.9-136.4-27.7c-26.6-11.9-50.8-27.4-73.2-46c-21.6-18-40.1-38.7-56.9-61.2
				c-3-4.1-3.7-6.8,1.3-10c11.8-7.5,23.3-15.4,34.8-23.4c2.4-1.7,3-1.6,4.6,0.9c11.6,18,26.2,33.4,41.9,47.7
				C164.6,545.7,189,561.4,216.2,573.1z"/>
			<path class="st0" d="M97.4,456.1c0.5,3.2-1.1,4.8-3.9,5.8c-3.4,1.2-7.3,2.4-9.8-0.8c-8.2-10.5-16.7-10.9-28.5-4.8
				c-7.7,4-10.9,7.7-10.8,16c0,4.8,0.8,10.9-7.1,12.2c-3.8,0.6-5.8-0.6-7.6-3.1c-5.2-6.9-10.1-14-15.3-20.9
				c-1.8-2.4-1.9-5.1-0.6-7.3c8.1-14.8,6.8-28.3-1-43.6C4,392.3,6,373.3,13.4,355.2c2-4.8,4.9-4.2,9-2.6
				c20.4,8.2,33.7,23.9,39.8,43.9c4.1,13.6,11.7,20.7,23.8,24.9c4.9,1.7,7.9,4.7,8.3,9.7C95,439.4,95.8,447.8,97.4,456.1z
				 M34.8,381.1c-0.5-4-2.4-6.7-6.2-6.8c-3.7-0.2-6.3,2.1-6.5,6c-0.2,3.9,2.5,6.3,6,6.6C32,387.2,33.7,384.1,34.8,381.1z"/>
		</g>
		<g>
		</g>
	</g>
</g>
</svg>
